# xmcd
#
# Track frame offsets:
#	150
#	15745
#	31912
#	47975
#	60647
#	76919
#	92821
#	107543
#	124257
#	136464
#	152194
#	167708
#	181243
#	194969
#	208514
#	223687
#
# Disc length: 3176 seconds
#
# Revision: 655368
# Processed by: cddbd v1.5.2PL0 Copyright (c) Steve Scherf et al.
# Submitted via: audiograbber 1.83.01
#
DISCID=e50c6610
DTITLE=Thomas Rhett - Center Point Road
DYEAR=2019
DGENRE=Country
TTITLE0=Up
TTITLE1=Don't Threaten Me With A Good Time (w Little Big Town)
TTITLE2=Blessed
TTITLE3=Look What God Gave Her
TTITLE4=Center Point Road (w Kelsea Ballerini)
TTITLE5=That Old Truck
TTITLE6=VHS
TTITLE7=Notice
TTITLE8=Sand
TTITLE9=Beer Can't Fix (w John Pardi)
TTITLE10=Things You Do For Love
TTITLE11=Remember You Young
TTITLE12=Don't Stop Drivin'
TTITLE13=Barefoot
TTITLE14=Dream You Never Had
TTITLE15=Almost
EXTD=
EXTT0=
EXTT1=
EXTT2=
EXTT3=
EXTT4=
EXTT5=
EXTT6=
EXTT7=
EXTT8=
EXTT9=
EXTT10=
EXTT11=
EXTT12=
EXTT13=
EXTT14=
EXTT15=
PLAYORDER=
